<?xml version="1.0" standalone="no"?>
<!DOCTYPE svg PUBLIC "-//W3C//DTD SVG 20010904//EN"
 "http://www.w3.org/TR/2001/REC-SVG-20010904/DTD/svg10.dtd">
<svg version="1.0" xmlns="http://www.w3.org/2000/svg"
 width="1200.000000pt" height="1200.000000pt" viewBox="0 0 1200.000000 1200.000000"
 preserveAspectRatio="xMidYMid meet">
<metadata>
Created by potrace 1.11, written by Peter Selinger 2001-2013
</metadata>
<g transform="translate(0.000000,1200.000000) scale(0.100000,-0.100000)"
fill="#000000" stroke="none">
<path d="M5827 9794 c-1 -1 -72 -4 -157 -8 -85 -3 -168 -8 -185 -10 -16 -2
-64 -7 -105 -11 -41 -4 -88 -9 -105 -11 -16 -2 -48 -7 -70 -9 -273 -35 -655
-136 -875 -231 -59 -26 -272 -132 -315 -157 -234 -135 -525 -388 -669 -582
-33 -44 -69 -89 -80 -101 -24 -24 -135 -147 -262 -289 -49 -55 -105 -118 -124
-139 -19 -21 -39 -44 -45 -50 -5 -6 -46 -52 -90 -101 -44 -49 -93 -105 -110
-124 -35 -40 -57 -65 -105 -117 -19 -22 -85 -95 -145 -164 -167 -190 -168
-191 -194 -219 -13 -14 -46 -52 -75 -85 -28 -32 -56 -64 -61 -70 -6 -6 -42
-47 -80 -91 -39 -44 -72 -82 -75 -85 -3 -3 -54 -61 -114 -130 -60 -69 -135
-154 -166 -190 -32 -36 -124 -141 -205 -235 -81 -93 -159 -184 -174 -200 -14
-17 -50 -59 -80 -95 -30 -36 -60 -69 -65 -75 -6 -5 -45 -50 -86 -100 -41 -49
-80 -96 -87 -103 -7 -7 -29 -34 -50 -60 -21 -26 -41 -49 -45 -52 -3 -3 -58
-70 -121 -148 -249 -311 -415 -559 -532 -797 -130 -263 -175 -436 -170 -650 4
-142 5 -151 36 -251 74 -240 260 -457 579 -676 85 -58 375 -238 384 -238 2 0
46 -24 99 -54 294 -167 716 -376 917 -456 671 -266 1146 -213 1455 164 l38 47
24 -47 c63 -125 203 -291 322 -383 158 -123 418 -237 606 -267 22 -3 42 -7 45
-9 3 -2 26 -6 50 -10 25 -3 52 -8 60 -10 73 -19 540 -27 691 -12 256 25 471
81 633 164 l49 25 67 -31 c121 -56 328 -119 445 -136 23 -3 52 -7 65 -10 100
-19 534 -27 685 -13 359 35 649 134 865 297 126 95 261 251 332 383 l32 61 36
-44 c94 -116 168 -176 295 -238 149 -74 281 -100 470 -95 55 1 114 5 130 8 17
3 50 8 75 11 126 18 336 81 510 153 358 149 1045 514 1344 714 272 183 462
374 557 560 38 74 79 199 87 263 9 63 8 259 -1 305 -21 114 -28 143 -52 213
-108 322 -328 675 -717 1149 -75 92 -150 182 -166 200 -16 18 -87 101 -158
183 -142 166 -229 268 -314 365 -361 413 -582 666 -626 715 -29 33 -61 69 -71
81 -10 12 -47 54 -83 94 -36 40 -72 81 -81 92 -19 21 -93 104 -269 302 -129
145 -150 169 -241 271 -29 33 -65 74 -80 90 -52 59 -133 150 -143 161 -6 6
-42 46 -81 90 -38 43 -98 107 -131 143 -34 37 -90 102 -125 146 -142 180 -307
337 -491 468 -48 34 -100 69 -116 77 -15 9 -58 34 -97 56 -226 132 -520 240
-845 312 -74 17 -157 33 -185 37 -27 4 -57 9 -67 11 -9 1 -38 5 -65 9 -26 4
-58 8 -71 10 -13 2 -53 7 -90 10 -37 4 -83 8 -102 10 -98 11 -683 27 -693 19z
m478 -398 c83 -4 164 -8 180 -10 17 -2 65 -6 107 -10 42 -4 86 -9 97 -11 10
-2 41 -6 68 -10 26 -4 62 -9 78 -11 175 -25 456 -100 632 -169 342 -135 651
-353 848 -600 22 -27 43 -52 46 -55 20 -16 154 -233 201 -326 162 -317 277
-746 314 -1169 3 -38 7 -83 9 -100 23 -173 23 -755 0 -925 -1 -14 -6 -50 -9
-80 -4 -30 -14 -91 -22 -135 -9 -44 -18 -93 -21 -110 -27 -166 -128 -489 -260
-834 l-36 -93 -46 93 c-130 264 -302 431 -706 686 -604 380 -877 614 -993 848
-64 128 -64 124 -64 817 -1 673 -4 732 -52 862 -72 199 -202 319 -412 382
-123 37 -344 43 -479 14 -276 -60 -456 -250 -501 -530 -2 -14 -6 -39 -9 -55
-3 -17 -6 -314 -6 -660 -1 -699 -1 -701 -69 -835 -68 -135 -223 -301 -425
-456 -60 -46 -116 -89 -122 -94 -11 -9 -235 -157 -565 -373 -209 -136 -330
-238 -430 -362 -74 -92 -151 -224 -188 -319 -6 -16 -12 -27 -15 -25 -11 12
-152 396 -192 524 -20 67 -52 180 -69 245 -17 66 -64 310 -69 361 -4 35 -9 75
-11 89 -16 124 -18 192 -19 445 0 252 9 528 19 583 2 9 7 51 11 92 4 41 9 84
11 95 2 11 6 40 9 65 5 40 10 75 31 185 3 17 19 86 36 155 240 989 832 1548
1843 1744 72 13 157 28 190 31 33 4 62 9 65 10 3 2 46 6 95 10 50 4 93 9 96
11 3 2 89 6 190 10 101 3 185 7 186 8 4 3 291 -2 428 -8z m-135 -1337 c67 -20
124 -81 146 -154 16 -54 18 -119 19 -705 1 -355 5 -672 10 -705 26 -208 154
-441 352 -642 191 -195 386 -340 877 -655 282 -182 387 -266 473 -379 170
-225 243 -537 238 -1014 -3 -282 -15 -371 -84 -630 -14 -52 -87 -200 -129
-261 -160 -234 -434 -377 -802 -419 -173 -20 -595 -8 -720 20 -14 3 -38 8 -55
10 -105 19 -270 84 -370 147 -80 50 -144 56 -211 21 -22 -11 -68 -36 -104 -55
-203 -107 -407 -149 -745 -153 -280 -3 -458 16 -630 68 -38 11 -72 21 -75 22
-43 13 -199 92 -218 111 -7 8 -17 14 -22 14 -20 0 -168 159 -213 227 -26 40
-47 77 -47 83 0 6 -7 21 -14 33 -18 27 -83 218 -91 267 -3 19 -8 46 -10 60
-11 54 -13 67 -20 130 -12 111 -14 140 -14 345 -1 194 1 227 13 328 3 26 8 68
11 95 4 26 11 65 17 87 5 22 11 47 13 55 8 43 41 142 67 204 67 157 161 279
286 373 42 31 79 59 82 63 12 13 86 63 215 145 754 477 1056 760 1185 1113 56
153 58 189 59 868 1 341 4 643 7 670 13 117 79 194 187 219 67 16 259 12 317
-6z m3167 -646 c147 -168 159 -181 202 -228 15 -16 124 -140 242 -275 117
-135 216 -247 219 -250 3 -3 48 -54 100 -115 52 -60 109 -126 126 -145 56 -62
391 -450 467 -540 61 -74 123 -146 127 -150 61 -59 376 -469 472 -615 322
-491 390 -801 230 -1054 -109 -173 -400 -390 -847 -631 -33 -18 -116 -63 -185
-100 -662 -356 -1038 -483 -1333 -448 -183 22 -310 114 -392 283 -67 139 -90
262 -88 490 1 314 10 379 77 577 30 89 200 535 225 593 38 85 162 468 196 605
13 51 54 241 59 270 3 19 8 46 10 60 5 27 11 67 21 145 4 28 9 61 11 75 22
135 22 816 0 995 -2 17 -7 66 -12 110 -4 44 -8 89 -9 100 -5 43 -37 250 -40
256 -2 3 -6 25 -9 50 -3 24 -10 59 -15 77 -5 18 -6 30 -1 27 5 -3 71 -76 147
-162z m-6542 87 c-7 -36 -16 -83 -19 -105 -4 -22 -11 -67 -16 -100 -12 -78
-31 -229 -35 -280 -17 -212 -20 -313 -20 -590 0 -330 4 -402 30 -596 47 -340
141 -682 303 -1099 199 -514 220 -573 253 -720 18 -78 30 -248 32 -445 2 -233
-69 -441 -193 -566 -98 -98 -206 -140 -368 -141 -256 -2 -494 73 -947 297
-886 440 -1290 724 -1387 978 -29 76 -30 83 -33 185 -4 202 104 468 328 801
99 147 455 605 507 651 3 3 28 32 55 65 28 33 55 65 60 71 6 6 33 37 60 69 28
32 55 63 60 69 6 6 64 74 130 151 66 77 132 153 146 170 15 16 143 163 285
325 142 162 263 300 268 306 6 6 36 40 66 75 55 63 255 289 378 427 36 40 66
71 68 69 1 -1 -3 -31 -11 -67z"/>
<path d="M3940 7495 c-254 -58 -363 -233 -355 -571 5 -180 46 -302 131 -388
90 -92 206 -128 404 -128 188 -1 301 34 392 120 98 92 140 224 139 439 -2 292
-104 458 -321 519 -80 22 -308 27 -390 9z"/>
<path d="M7665 7494 c-200 -45 -309 -162 -345 -374 -10 -56 -14 -258 -6 -296
2 -12 7 -37 10 -55 22 -142 123 -274 243 -319 171 -64 442 -57 581 14 90 47
155 124 190 227 43 122 50 325 17 483 -11 53 -62 153 -100 195 -47 51 -106 87
-188 113 -86 28 -304 34 -402 12z"/>
<path d="M5805 5685 c-294 -54 -476 -247 -525 -556 -12 -76 -9 -332 4 -394 56
-251 181 -405 391 -481 162 -59 402 -66 590 -18 251 65 412 258 452 544 10 71
9 279 -1 349 -29 202 -138 378 -287 468 -55 33 -166 76 -229 88 -68 13 -323
14 -395 0z m361 -396 c75 -23 123 -71 149 -148 33 -101 23 -348 -18 -428 -43
-81 -130 -116 -292 -116 -185 -1 -271 36 -312 133 -24 56 -28 87 -28 230 0
186 29 265 115 310 79 43 278 52 386 19z"/>
</g>
</svg>
